<svg width="48" height="48" viewBox="0 0 48 48" fill="none" xmlns="http://www.w3.org/2000/svg">
<g clip-path="url(#clip0_62_47)">
<path d="M31.5381 21.2509H33.5644V32.1136H31.5381V21.2509Z" fill="#202020"/>
<path d="M19.6367 25.2409H22.5658C22.4131 24.7718 22.1676 24.0191 21.7722 22.8273C21.4994 22.0091 21.2758 21.3082 21.0849 20.7164C20.7549 21.7991 20.2776 23.2991 19.6367 25.2409Z" fill="#202020"/>
<path d="M19.6559 16.8573C19.6404 17.2597 19.5622 17.6572 19.4241 18.0355L14.4932 32.1136H16.3641L17.8532 27.6218H24.3359L25.8932 32.1136H28.0395L22.6123 16.8573H19.6559ZM23.8341 25.6364L24.0332 26.3345H18.1395L18.3741 25.6173C19.6068 21.8536 20.3295 19.53 20.5204 18.7173L20.6186 18.2973H21.4613L21.6004 18.6927C21.7941 19.3718 22.2004 20.6482 22.8086 22.4864C23.4304 24.3627 23.7659 25.3936 23.8341 25.6364Z" fill="#202020"/>
<path d="M36.9109 3.35571e-07H11.0891C9.63275 -0.000357972 8.19061 0.286225 6.84506 0.843377C5.4995 1.40053 4.27691 2.21733 3.24712 3.24712C2.21733 4.27691 1.40053 5.4995 0.843377 6.84506C0.286225 8.19061 -0.000357972 9.63275 3.35571e-07 11.0891V36.9109C-0.000357972 38.3672 0.286225 39.8094 0.843377 41.1549C1.40053 42.5005 2.21733 43.7231 3.24712 44.7529C4.27691 45.7827 5.4995 46.5995 6.84506 47.1566C8.19061 47.7138 9.63275 48.0004 11.0891 48H36.9109C38.3672 48.0004 39.8094 47.7138 41.1549 47.1566C42.5005 46.5995 43.7231 45.7827 44.7529 44.7529C45.7827 43.7231 46.5995 42.5005 47.1566 41.1549C47.7138 39.8094 48.0004 38.3672 48 36.9109V11.0891C48.0004 9.63275 47.7138 8.19061 47.1566 6.84506C46.5995 5.4995 45.7827 4.27691 44.7529 3.24712C43.7231 2.21733 42.5005 1.40053 41.1549 0.843377C39.8094 0.286225 38.3672 -0.000357972 36.9109 3.35571e-07ZM29.1818 32.9236C29.1138 33.0135 29.0248 33.0854 28.9226 33.1329C28.8203 33.1805 28.708 33.2023 28.5955 33.1964H25.6909C25.53 33.1976 25.3724 33.1501 25.239 33.06C25.1056 32.97 25.0026 32.8416 24.9436 32.6918V32.6564L23.58 28.7045H18.6709L17.3836 32.5855C17.3476 32.7671 17.2465 32.9293 17.0994 33.0418C16.9523 33.1542 16.7693 33.2092 16.5845 33.1964H13.9827C13.8677 33.2026 13.753 33.1811 13.648 33.1336C13.5431 33.0862 13.4512 33.0141 13.38 32.9236C13.3116 32.8281 13.2674 32.7174 13.2512 32.601C13.2351 32.4846 13.2475 32.366 13.2873 32.2555L18.42 17.6018C18.5413 17.2239 18.5993 16.8286 18.5918 16.4318C18.5927 16.3403 18.6123 16.2498 18.6494 16.1661C18.6864 16.0823 18.7401 16.007 18.8073 15.9447C18.8744 15.8825 18.9535 15.8345 19.0398 15.8039C19.1261 15.7732 19.2177 15.7604 19.3091 15.7664H22.8545C22.9891 15.7664 23.1213 15.802 23.2376 15.8695C23.354 15.937 23.4505 16.0341 23.5173 16.1509L23.5636 16.2491L29.2582 32.2527C29.3022 32.3621 29.3183 32.4807 29.305 32.5979C29.2917 32.715 29.2493 32.827 29.1818 32.9236ZM34.6636 32.4627C34.6667 32.561 34.6495 32.6588 34.6133 32.7501C34.5771 32.8415 34.5226 32.9245 34.4531 32.994C34.3836 33.0635 34.3006 33.118 34.2092 33.1542C34.1179 33.1905 34.0201 33.2076 33.9218 33.2045H31.2218C31.1199 33.2092 31.0182 33.1926 30.9231 33.1557C30.828 33.1188 30.7417 33.0625 30.6696 32.9904C30.5975 32.9183 30.5412 32.832 30.5043 32.7369C30.4674 32.6418 30.4508 32.5401 30.4555 32.4382V20.9018C30.452 20.8035 30.4689 20.7055 30.5049 20.6139C30.541 20.5224 30.5955 20.4392 30.6651 20.3696C30.7347 20.3001 30.8178 20.2456 30.9094 20.2095C31.0009 20.1734 31.0989 20.1566 31.1973 20.16H33.9245C34.0229 20.1566 34.1209 20.1734 34.2124 20.2095C34.304 20.2456 34.3871 20.3001 34.4567 20.3696C34.5263 20.4392 34.5808 20.5224 34.6169 20.6139C34.6529 20.7055 34.6698 20.8035 34.6664 20.9018L34.6636 32.4627ZM34.1591 18.6109C33.9 18.8766 33.5789 19.0738 33.2247 19.1847C32.8706 19.2955 32.4944 19.3166 32.13 19.246C31.7656 19.1754 31.4245 19.0154 31.1374 18.7803C30.8502 18.5452 30.626 18.2423 30.4849 17.8991C30.3438 17.5558 30.2903 17.1829 30.3291 16.8138C30.3679 16.4447 30.4978 16.091 30.7072 15.7846C30.9166 15.4781 31.1988 15.2286 31.5286 15.0583C31.8584 14.888 32.2253 14.8024 32.5964 14.8091C32.8886 14.7983 33.1798 14.8494 33.451 14.9589C33.7222 15.0684 33.9672 15.2339 34.17 15.4445C34.5678 15.8723 34.7805 16.4398 34.7618 17.0236C34.7729 17.3158 34.7244 17.6072 34.6194 17.88C34.5144 18.1529 34.355 18.4015 34.1509 18.6109H34.1591Z" fill="#202020"/>
<path d="M32.5878 15.9C32.4377 15.8918 32.2876 15.9147 32.1468 15.9673C32.006 16.0198 31.8776 16.1009 31.7696 16.2055C31.5759 16.4328 31.4675 16.7206 31.463 17.0192C31.4586 17.3179 31.5583 17.6087 31.7451 17.8418C31.8967 18.016 32.0996 18.1376 32.3248 18.1891C32.5499 18.2406 32.7855 18.2194 32.9978 18.1284C33.21 18.0374 33.388 17.8815 33.5059 17.6829C33.6239 17.4844 33.6758 17.2536 33.6542 17.0236C33.6682 16.7227 33.5623 16.4284 33.3596 16.2055C33.2603 16.1023 33.14 16.0216 33.0069 15.9689C32.8737 15.9162 32.7308 15.8927 32.5878 15.9Z" fill="#202020"/>
</g>
<defs>
<clipPath id="clip0_62_47">
<rect width="48" height="48" fill="white"/>
</clipPath>
</defs>
</svg>
