<svg width="48" height="48" viewBox="0 0 48 48" fill="none" xmlns="http://www.w3.org/2000/svg">
<path d="M30.9708 25.2218C30.1527 24.8891 29.6263 24.6082 29.3345 24.3327C29.1742 24.1833 29.0463 24.0027 28.9586 23.8019C28.8709 23.6011 28.8253 23.3845 28.8245 23.1655C28.8279 22.9315 28.8868 22.7018 28.9963 22.4951C29.1058 22.2883 29.2629 22.1106 29.4545 21.9764C29.9231 21.6534 30.4877 21.4995 31.0554 21.54C31.9392 21.5423 32.8107 21.7476 33.6027 22.14V20.8473C32.7547 20.5455 31.8566 20.4094 30.9572 20.4464C29.6781 20.4464 28.6936 20.7464 28.0308 21.3382C27.7189 21.6006 27.4697 21.9297 27.3017 22.3011C27.1337 22.6726 27.0511 23.077 27.0599 23.4845C27.0308 24.1549 27.258 24.8112 27.6954 25.32C28.1508 25.8327 28.999 26.3318 30.2208 26.8064C30.8174 26.997 31.3726 27.2987 31.8572 27.6955C32.0301 27.8571 32.1677 28.0527 32.2616 28.27C32.3554 28.4872 32.4035 28.7215 32.4027 28.9582C32.4034 29.2085 32.3398 29.4548 32.2181 29.6735C32.0963 29.8923 31.9204 30.076 31.7072 30.2073C31.2207 30.5006 30.6571 30.6403 30.0899 30.6082C29.0225 30.6106 27.9737 30.3281 27.0518 29.79V31.1536C28.0302 31.6174 29.1061 31.8382 30.1881 31.7973C31.4945 31.7973 32.5308 31.4945 33.2699 30.9C33.6144 30.6346 33.8905 30.2907 34.075 29.8969C34.2596 29.5031 34.3473 29.0709 34.3308 28.6364C34.3473 28.2955 34.2963 27.9548 34.1807 27.6337C34.0651 27.3126 33.8872 27.0176 33.6572 26.7655C33.1418 26.2255 32.2472 25.7127 30.9708 25.2218Z" fill="#202020"/>
<path d="M18.0599 16.2245C16.3445 16.2245 14.8799 16.2245 13.6963 16.2655V31.5382H15.7227V25.8845H17.7272C19.5845 25.8845 21.1417 25.4618 22.3636 24.63C23.5254 23.8309 24.0899 22.6309 24.0899 20.9564C24.1055 20.3276 23.9873 19.7027 23.7433 19.123C23.4993 18.5433 23.135 18.022 22.6745 17.5936C21.7063 16.6855 20.1627 16.2245 18.0599 16.2245ZM20.8417 23.8445C19.9588 24.4215 18.9174 24.7077 17.8636 24.6627C17.3057 24.68 16.7473 24.6618 16.1917 24.6082L15.7227 24.5455V17.49H16.5763H17.2199C17.2199 17.49 17.7654 17.49 18.0599 17.49C19.3199 17.49 20.3127 17.8009 21.0081 18.4118C21.7036 19.0227 22.099 19.9309 22.099 21.0545C22.0908 22.3091 21.6708 23.2555 20.8417 23.8445Z" fill="#202020"/>
<path d="M36.9109 3.35571e-07H11.0891C9.63275 -0.000357972 8.19061 0.286225 6.84506 0.843377C5.4995 1.40053 4.27691 2.21733 3.24712 3.24712C2.21733 4.27691 1.40053 5.4995 0.843377 6.84506C0.286225 8.19061 -0.000357972 9.63275 3.35571e-07 11.0891V36.9109C-0.000357972 38.3672 0.286225 39.8094 0.843377 41.1549C1.40053 42.5005 2.21733 43.7231 3.24712 44.7529C4.27691 45.7827 5.4995 46.5995 6.84506 47.1566C8.19061 47.7138 9.63275 48.0004 11.0891 48H36.9109C38.3672 48.0004 39.8094 47.7138 41.1549 47.1566C42.5005 46.5995 43.7231 45.7827 44.7529 44.7529C45.7827 43.7231 46.5995 42.5005 47.1566 41.1549C47.7138 39.8094 48.0004 38.3672 48 36.9109V11.0891C48.0004 9.63275 47.7138 8.19061 47.1566 6.84506C46.5995 5.4995 45.7827 4.27691 44.7529 3.24712C43.7231 2.21733 42.5005 1.40053 41.1549 0.843377C39.8094 0.286225 38.3672 -0.000357972 36.9109 3.35571e-07ZM22.9582 25.53C21.5645 26.49 19.8 26.9755 17.7164 26.9755H16.8136V31.8845C16.8171 31.9829 16.8002 32.0809 16.7642 32.1724C16.7281 32.264 16.6736 32.3471 16.604 32.4167C16.5344 32.4863 16.4513 32.5408 16.3597 32.5769C16.2682 32.6129 16.1702 32.6298 16.0718 32.6264H13.3445C13.2481 32.6308 13.1518 32.6155 13.0616 32.5814C12.9713 32.5472 12.889 32.4949 12.8198 32.4277C12.7505 32.3605 12.6958 32.2798 12.6589 32.1906C12.6221 32.1014 12.6039 32.0056 12.6055 31.9091V15.9C12.6024 15.805 12.6189 15.7104 12.6539 15.622C12.6889 15.5336 12.7416 15.4533 12.8088 15.3861C12.876 15.3188 12.9563 15.2661 13.0447 15.2312C13.1331 15.1962 13.2277 15.1797 13.3227 15.1827C14.5582 15.15 16.1564 15.1336 18.06 15.1336C20.4545 15.1336 22.2518 15.6982 23.4082 16.8082C23.9738 17.3388 24.4218 17.9821 24.7234 18.6966C25.025 19.4111 25.1734 20.181 25.1591 20.9564C25.1591 22.9882 24.42 24.5264 22.9582 25.53ZM33.9273 31.7264C32.9891 32.4818 31.7209 32.8664 30.1609 32.8664C28.6473 32.8664 27.3791 32.5936 26.3918 32.0291C26.25 31.9662 26.1305 31.8621 26.0487 31.7302C25.967 31.5984 25.9269 31.445 25.9336 31.29V29.0073C25.9298 28.8868 25.9581 28.7675 26.0156 28.6616C26.0731 28.5556 26.1578 28.4669 26.2609 28.4045C26.3734 28.3352 26.5048 28.3032 26.6366 28.313C26.7683 28.3228 26.8936 28.3739 26.9945 28.4591C27.8729 29.1399 28.9514 29.5119 30.0627 29.5173C30.4115 29.5416 30.76 29.4679 31.0691 29.3045C31.1335 29.2723 31.1877 29.2229 31.2257 29.1618C31.2637 29.1006 31.2841 29.0302 31.2845 28.9582C31.2874 28.8684 31.2709 28.779 31.236 28.6961C31.2012 28.6133 31.1489 28.539 31.0827 28.4782C30.9736 28.3745 30.6682 28.1509 29.8173 27.8236C28.4127 27.2782 27.4473 26.6973 26.8691 26.0427C26.2539 25.3352 25.9286 24.4216 25.9582 23.4845C25.9498 22.9234 26.0652 22.3673 26.2962 21.8559C26.5271 21.3444 26.868 20.8902 27.2945 20.5255C28.1618 19.7482 29.3918 19.3555 30.9464 19.3555C32.37 19.3555 33.4527 19.5518 34.2573 19.9527L34.2955 19.9718C34.4251 20.056 34.5296 20.1737 34.5978 20.3125C34.666 20.4513 34.6953 20.6059 34.6827 20.76V22.7973C34.6928 22.9286 34.6653 23.0602 34.6035 23.1765C34.5417 23.2929 34.4481 23.3893 34.3336 23.4545C34.2212 23.5125 34.0946 23.5374 33.9686 23.5263C33.8426 23.5152 33.7224 23.4686 33.6218 23.3918C32.8514 22.9014 31.9578 22.6395 31.0445 22.6364C30.7222 22.6091 30.3991 22.6794 30.1173 22.8382C30.0593 22.8728 30.011 22.9214 29.9767 22.9795C29.9424 23.0377 29.9232 23.1035 29.9209 23.1709C29.9214 23.2435 29.9375 23.3152 29.9681 23.3811C29.9987 23.4469 30.043 23.5055 30.0982 23.5527C30.1964 23.6482 30.4936 23.8609 31.3691 24.21C32.8118 24.7555 33.8236 25.3527 34.4236 25.9991C35.0784 26.7116 35.4271 27.6529 35.3945 28.62C35.4097 29.2164 35.2848 29.8081 35.03 30.3475C34.7752 30.887 34.3975 31.3592 33.9273 31.7264Z" fill="#202020"/>
<path d="M20.2909 19.2055C19.7973 18.7745 19.0473 18.5455 18.06 18.5455C17.7873 18.5455 17.5146 18.5455 17.2418 18.5455C17.0782 18.5455 16.9309 18.5455 16.8027 18.5455V23.5636H17.8527C18.6814 23.6046 19.5022 23.3863 20.2009 22.9391C20.73 22.5627 20.9891 21.9327 20.9891 21.03C21 20.2227 20.7682 19.6364 20.2909 19.2055Z" fill="#202020"/>
</svg>
