<svg width="48" height="48" viewBox="0 0 48 48" fill="none" xmlns="http://www.w3.org/2000/svg">
<g clip-path="url(#clip0_62_40)">
<path d="M25.8326 24.1282C25.2871 24.7173 24.998 25.5845 24.998 26.7136C24.998 27.8973 25.2708 28.7755 25.8162 29.3209C26.0903 29.5941 26.4177 29.8077 26.7782 29.9485C27.1386 30.0893 27.5241 30.1542 27.9108 30.1391C28.2473 30.1468 28.5835 30.1129 28.9117 30.0382V23.3564C28.6246 23.2848 28.3294 23.2509 28.0335 23.2555C27.6256 23.2351 27.218 23.3024 26.8383 23.453C26.4586 23.6035 26.1157 23.8338 25.8326 24.1282Z" fill="#202020"/>
<path d="M32.0314 15.5755H29.9996V21.4227L29.3041 21.2236C28.9033 21.1279 28.4915 21.0857 28.0796 21.0982C26.1705 21.0982 24.6105 21.6436 23.4868 22.7345C22.9352 23.262 22.5014 23.9001 22.2137 24.607C21.926 25.3139 21.7911 26.0736 21.8178 26.8364C21.8178 28.7045 22.325 30.0682 23.3668 31.0064C24.4087 31.9445 25.8214 32.4273 27.5805 32.4273C29.1414 32.4373 30.6856 32.1059 32.105 31.4564C32.0614 30.7282 32.0423 30.2427 32.0423 29.9782L32.0314 15.5755ZM29.9996 30.7555L29.6968 30.9055C29.1335 31.1505 28.5213 31.2625 27.9078 31.2327C27.3776 31.2476 26.8499 31.1542 26.3571 30.9582C25.8642 30.7622 25.4165 30.4677 25.0414 30.0927C24.2859 29.3345 23.9014 28.1836 23.9014 26.7136C23.9014 25.2982 24.2805 24.1773 25.0305 23.3809C25.4159 22.9773 25.8826 22.6602 26.3998 22.4505C26.917 22.2408 27.4728 22.1433 28.0305 22.1645C28.6041 22.1426 29.1749 22.2557 29.6968 22.4945L29.9996 22.6364V30.7555Z" fill="#202020"/>
<path d="M15.8916 16.9255H17.918V32.1818H15.8916V16.9255Z" fill="#202020"/>
<path d="M36.9109 3.35571e-07H11.0891C9.63275 -0.000357972 8.19061 0.286225 6.84506 0.843377C5.4995 1.40053 4.27691 2.21733 3.24712 3.24712C2.21733 4.27691 1.40053 5.4995 0.843377 6.84506C0.286225 8.19061 -0.000357972 9.63275 3.35571e-07 11.0891V36.9109C-0.000357972 38.3672 0.286225 39.8094 0.843377 41.1549C1.40053 42.5005 2.21733 43.7231 3.24712 44.7529C4.27691 45.7827 5.4995 46.5995 6.84506 47.1566C8.19061 47.7138 9.63275 48.0004 11.0891 48H36.9109C38.3672 48.0004 39.8094 47.7138 41.1549 47.1566C42.5005 46.5995 43.7231 45.7827 44.7529 44.7529C45.7827 43.7231 46.5995 42.5005 47.1566 41.1549C47.7138 39.8094 48.0004 38.3672 48 36.9109V11.0891C48.0004 9.63275 47.7138 8.19061 47.1566 6.84506C46.5995 5.4995 45.7827 4.27691 44.7529 3.24712C43.7231 2.21733 42.5005 1.40053 41.1549 0.843377C39.8094 0.286225 38.3672 -0.000357972 36.9109 3.35571e-07ZM19.0091 32.5064C19.0151 32.606 19.0005 32.7059 18.966 32.7996C18.9315 32.8933 18.878 32.9789 18.8088 33.0509C18.7396 33.1229 18.6563 33.1798 18.564 33.218C18.4717 33.2562 18.3726 33.2748 18.2727 33.2727H15.5727C15.4708 33.2774 15.3691 33.2607 15.274 33.2239C15.1789 33.187 15.0926 33.1307 15.0205 33.0586C14.9484 32.9865 14.8921 32.9001 14.8552 32.8051C14.8183 32.71 14.8017 32.6082 14.8064 32.5064V16.5736C14.8035 16.4735 14.8216 16.3738 14.8594 16.281C14.8973 16.1882 14.9541 16.1043 15.0263 16.0348C15.0984 15.9652 15.1843 15.9115 15.2784 15.877C15.3725 15.8425 15.4727 15.8281 15.5727 15.8345H18.2727C18.3709 15.8307 18.4689 15.8472 18.5604 15.883C18.652 15.9187 18.7351 15.973 18.8048 16.0424C18.8744 16.1117 18.929 16.1947 18.9651 16.2861C19.0011 16.3775 19.018 16.4754 19.0145 16.5736L19.0091 32.5064ZM32.7082 32.3727C31.1038 33.1372 29.3472 33.5288 27.57 33.5182C25.5409 33.5182 23.8773 32.9455 22.6282 31.8191C21.3791 30.6927 20.7191 28.9991 20.7191 26.8364C20.6932 25.9222 20.8597 25.0127 21.2078 24.1671C21.556 23.3214 22.078 22.5583 22.74 21.9273C24.0736 20.6455 25.8736 19.9964 28.0882 19.9964C28.3614 19.9945 28.6345 20.0073 28.9064 20.0345V15.2018C28.9029 15.1067 28.9191 15.0119 28.954 14.9233C28.9888 14.8347 29.0415 14.7543 29.1088 14.687C29.1761 14.6197 29.2566 14.567 29.3451 14.5321C29.4337 14.4973 29.5285 14.4811 29.6236 14.4845H32.4218C32.5137 14.4811 32.6053 14.4967 32.6909 14.5303C32.7765 14.5639 32.8543 14.6148 32.9193 14.6798C32.9843 14.7448 33.0352 14.8226 33.0688 14.9082C33.1024 14.9938 33.118 15.0854 33.1145 15.1773V29.9782C33.1145 30.2509 33.1391 30.7964 33.1855 31.5982C33.2077 31.7626 33.1724 31.9296 33.0853 32.0708C32.9983 32.212 32.865 32.3187 32.7082 32.3727Z" fill="#202020"/>
</g>
<defs>
<clipPath id="clip0_62_40">
<rect width="48" height="48" fill="white"/>
</clipPath>
</defs>
</svg>
