<svg width="31" height="31" viewBox="0 0 31 31" fill="none" xmlns="http://www.w3.org/2000/svg">
<path d="M13.875 26.875C11.3039 26.875 8.79043 26.1126 6.65259 24.6841C4.51475 23.2556 2.84851 21.2253 1.86457 18.8499C0.880633 16.4744 0.623189 13.8606 1.1248 11.3388C1.62641 8.81707 2.86454 6.50069 4.68262 4.68261C6.5007 2.86453 8.81708 1.6264 11.3388 1.12479C13.8606 0.623182 16.4745 0.880625 18.8499 1.86456C21.2253 2.8485 23.2557 4.51475 24.6841 6.65259C26.1126 8.79042 26.875 11.3038 26.875 13.875C26.8711 17.3216 25.5003 20.626 23.0631 23.0631C20.626 25.5002 17.3216 26.8711 13.875 26.875ZM13.875 4.125C11.9466 4.125 10.0616 4.69683 8.4582 5.76817C6.85482 6.83951 5.60513 8.36226 4.86718 10.1438C4.12923 11.9254 3.93614 13.8858 4.31235 15.7771C4.68856 17.6684 5.61715 19.4057 6.98072 20.7693C8.34428 22.1329 10.0816 23.0615 11.9729 23.4377C13.8642 23.8139 15.8246 23.6208 17.6062 22.8828C19.3878 22.1449 20.9105 20.8952 21.9818 19.2918C23.0532 17.6884 23.625 15.8034 23.625 13.875C23.6224 11.2899 22.5944 8.81148 20.7664 6.98356C18.9385 5.15564 16.4601 4.12758 13.875 4.125Z" fill="#FFFCFC"/>
<path d="M28.4996 30.125C28.0686 30.1249 27.6554 29.9536 27.3507 29.6489L20.8507 23.1489C20.5547 22.8424 20.3909 22.4319 20.3946 22.0058C20.3983 21.5798 20.5692 21.1722 20.8705 20.8709C21.1718 20.5696 21.5793 20.3987 22.0054 20.395C22.4315 20.3913 22.842 20.5551 23.1484 20.8511L29.6484 27.3511C29.8756 27.5784 30.0303 27.8679 30.093 28.1831C30.1557 28.4982 30.1235 28.8249 30.0005 29.1218C29.8776 29.4187 29.6693 29.6725 29.4022 29.851C29.135 30.0296 28.8209 30.1249 28.4996 30.125Z" fill="#FFFCFC"/>
</svg>
