<svg width="173" height="42" viewBox="0 0 173 42" fill="none" xmlns="http://www.w3.org/2000/svg">
<g opacity="0.7">
<path d="M25.507 0H26.4412C26.6084 4.96416 22.5889 10.0567 17.4737 9.96916C17.3872 5.20333 20.9165 0.915833 25.507 0ZM139.812 2.54916C141.951 1.10833 145.077 3.3075 144.621 5.83916C144.541 7.64166 142.828 8.60999 141.282 8.98916C140.452 8.62166 139.5 8.40582 138.895 7.67083C137.459 6.21833 137.961 3.40666 139.812 2.54916ZM40.6853 2.8C42.9517 2.80583 45.2181 2.81166 47.4902 2.7825C51.7577 13.09 55.8637 23.4675 60.0447 33.81C64.341 23.52 68.372 13.1192 72.6107 2.80583C74.8828 2.8 77.1492 2.8 79.4156 2.81166C79.4444 15.6567 79.4213 28.5075 79.4271 41.3525C77.6394 41.3466 75.8516 41.3408 74.0581 41.3933C73.9486 32.0016 74.1446 22.61 73.9601 13.2183C73.5622 13.9475 73.1931 14.6883 72.8644 15.4525C69.3812 24.0916 65.8346 32.7075 62.3341 41.3408C60.8001 41.3583 59.2604 41.3641 57.7264 41.2708C54.0587 31.7975 50.0334 22.4641 46.3196 13.0142C46.0831 22.4408 46.2734 31.8791 46.2215 41.3116C44.3704 41.3583 42.525 41.3525 40.6738 41.3583C40.6738 28.5016 40.6565 15.6508 40.6853 2.8Z" fill="#FFFCFC"/>
<path d="M9.41151 10.1266C12.4103 9.58994 15.04 11.4216 17.8888 11.9174C20.5819 11.3399 23.0847 9.7591 25.922 10.0041C29.0823 9.9341 32.0118 11.5849 34.0072 13.9824C30.9738 15.9716 28.7766 19.5008 29.434 23.2574C29.6474 26.7224 32.2713 29.3182 35.1202 30.8991C33.5862 34.8074 31.4813 38.8266 27.9693 41.2591C24.4399 43.5224 20.9106 39.4274 17.2371 40.3666C15.409 40.7224 13.7078 41.5274 11.9086 41.9999H10.4553C9.26157 41.5274 8.11974 40.8682 7.22011 39.9291C3.20637 35.6999 0.645888 30.0999 0 24.2783V21.1516C0.317177 15.9366 4.11754 10.8324 9.41151 10.1266ZM116.133 14.8341C120.233 12.2674 125.741 12.1566 130.002 14.4083C132.644 15.8199 134.241 18.6841 134.408 21.6649C132.655 21.6766 130.908 21.6766 129.16 21.6649C128.693 20.6149 128.411 19.4016 127.523 18.6083C125.948 17.1849 123.659 17.0158 121.675 17.4008C119.997 17.7799 118.128 19.1041 118.336 21.0583C118.169 22.5924 119.524 23.6191 120.787 24.0858C123.936 25.2349 127.355 25.4508 130.452 26.7633C132.142 27.4691 133.797 28.6066 134.477 30.3974C135.908 33.5474 134.662 37.5024 131.963 39.5266C130.106 40.9557 127.822 41.6791 125.545 41.9999H121.369C118.74 41.5157 116.018 40.5824 114.195 38.5057C112.794 37.0707 112.292 35.0757 111.9 33.1682C113.78 33.1507 115.66 33.1916 117.54 33.3491C118.18 35.0291 119.189 36.8257 121.069 37.2632C123.497 37.7882 126.542 37.9166 128.445 36.0207C129.841 34.6441 129.501 32.0599 127.719 31.1907C123.526 29.2016 118.203 29.7149 114.674 26.3024C111.358 23.1466 112.379 17.1791 116.133 14.8341ZM153.646 14.7641C157.741 12.2849 163.11 12.1566 167.343 14.3616C170.532 16.0299 172.614 19.4249 173 23.0008C171.207 23.0299 169.419 23.0416 167.625 23.0591C166.991 21.6299 166.501 20.0024 165.192 19.0341C163.358 17.5758 160.797 17.4241 158.612 18.0133C155.844 18.9116 154.263 21.7758 153.785 24.5233C153.364 27.9066 153.422 31.6866 155.549 34.5216C157.706 37.5199 162.302 37.9982 165.192 35.8516C166.489 34.9124 166.997 33.3141 167.62 31.9024C169.413 31.9141 171.207 31.9082 173 31.9316C172.648 37.4732 167.666 41.5974 162.389 41.9999H159.367C156.282 41.6032 153.197 40.3199 151.132 37.8991C148.531 34.8774 147.58 30.7474 147.77 26.8158C147.695 22.1899 149.662 17.2724 153.646 14.7641ZM84.5768 13.2999C86.4741 13.2999 88.3713 13.2999 90.2686 13.2883C90.4417 19.5649 90.0783 25.8591 90.4532 32.1241C90.6896 36.9774 97.1312 38.4124 100.418 35.6649C102.177 34.2649 102.967 31.9432 102.91 29.7324C102.933 24.2549 102.875 18.7716 102.933 13.2941C104.841 13.2999 106.75 13.2999 108.659 13.2941C108.671 22.7091 108.694 32.1182 108.659 41.5274C106.796 41.5391 104.94 41.4866 103.088 41.2941C103.088 39.7716 103.083 38.2491 103.088 36.7266C101.652 39.6666 98.8151 41.7607 95.5396 41.9999H93.0713C90.5628 41.6382 88.0311 40.5182 86.5317 38.3832C84.9458 36.2599 84.5364 33.5182 84.5652 30.9224C84.5768 25.0483 84.5652 19.1741 84.5768 13.2999ZM138.526 13.2941C140.342 13.3058 142.159 13.3116 143.97 13.2533C144.125 14.0758 144.258 14.9041 144.275 15.7441C144.241 24.2724 144.281 32.7949 144.252 41.3232C142.338 41.3582 140.423 41.3524 138.508 41.3524C138.514 32.0016 138.48 22.6508 138.526 13.2941Z" fill="#FFFCFC"/>
</g>
</svg>
