<svg width="198" height="38" viewBox="0 0 198 38" fill="none" xmlns="http://www.w3.org/2000/svg">
<g opacity="0.7">
<path d="M46.3518 25.2207C46.3518 33.1904 51.2424 37.9603 58.509 37.9603C62.1324 37.9603 65.1816 36.9467 66.8844 34.2835V37.9603H73.5174V0H66.627V16.1381C65.0628 13.4749 62.172 12.2824 58.5486 12.2824C51.4602 12.2626 46.3518 17.1318 46.3518 25.2207ZM66.8448 25.2207C66.8448 29.772 63.756 32.614 60.0534 32.614C56.2122 32.614 53.262 29.772 53.262 25.2207C53.262 20.59 56.232 17.6883 60.0534 17.6883C63.756 17.6883 66.8448 20.6297 66.8448 25.2207ZM94.9608 28.1621C94.1688 31.1036 92.169 32.5743 89.0208 32.5743C85.3578 32.5743 82.3482 30.3483 82.269 26.4132H99.6336C99.8514 25.4393 99.9504 24.4059 99.9504 23.273C99.9504 16.2176 95.1588 12.2427 88.0902 12.2427C80.5464 12.2427 75.3588 17.6287 75.3588 24.9425C75.3588 33.091 81.081 37.9801 89.001 37.9801C94.9806 37.9801 99.0396 35.4759 100.822 30.4874L94.9608 28.1621ZM82.269 21.8023C82.9224 18.9603 85.2786 17.2908 88.11 17.2908C91.1988 17.2908 93.2976 18.9603 93.2976 21.5837L93.258 21.8023H82.269ZM120.523 28.1621C119.731 31.1036 117.731 32.5743 114.583 32.5743C110.92 32.5743 107.91 30.3483 107.831 26.4132H125.195C125.413 25.4393 125.512 24.4059 125.512 23.273C125.512 16.2176 120.721 12.2427 113.652 12.2427C106.108 12.2427 100.921 17.6287 100.921 24.9425C100.921 33.091 106.643 37.9801 114.563 37.9801C120.542 37.9801 124.601 35.4759 126.383 30.4874L120.523 28.1621ZM107.831 21.8023C108.484 18.9603 110.84 17.2908 113.672 17.2908C116.761 17.2908 118.859 18.9603 118.859 21.5837L118.82 21.8023H107.831ZM149.827 38V31.7395H135.353L149.431 17.9864V12.2626H127.156V18.2249H140.758L126.72 32.0377V38H149.827ZM169.963 28.1621C169.171 31.1036 167.171 32.5743 164.023 32.5743C160.36 32.5743 157.351 30.3483 157.271 26.4132H174.636C174.854 25.4393 174.953 24.4059 174.953 23.273C174.953 16.2176 170.161 12.2427 163.093 12.2427C155.549 12.2427 150.361 17.6287 150.361 24.9425C150.361 33.091 156.083 37.9801 164.003 37.9801C169.983 37.9801 174.042 35.4759 175.824 30.4874L169.963 28.1621ZM157.271 21.8023C157.925 18.9603 160.281 17.2908 163.112 17.2908C166.201 17.2908 168.3 18.9603 168.3 21.5837L168.26 21.8023H157.271Z" fill="#FFFCFC"/>
<path fill-rule="evenodd" clip-rule="evenodd" d="M30.7891 12.2625H39.2833V17.2509H30.7891V12.2625Z" fill="#FFFCFC"/>
<path fill-rule="evenodd" clip-rule="evenodd" d="M30.7891 19.179H39.2833V24.1674H30.7891V19.179Z" fill="#FFFCFC"/>
<path fill-rule="evenodd" clip-rule="evenodd" d="M30.7891 26.0952H39.2833V31.0837H30.7891V26.0952Z" fill="#FFFCFC"/>
<path fill-rule="evenodd" clip-rule="evenodd" d="M0 33.0115H8.4942V38H0V33.0115Z" fill="#FFFCFC"/>
<path fill-rule="evenodd" clip-rule="evenodd" d="M10.2563 33.0115H18.7505V38H10.2563V33.0115Z" fill="#FFFCFC"/>
<path fill-rule="evenodd" clip-rule="evenodd" d="M20.5327 33.0115H29.0269V38H20.5327V33.0115Z" fill="#FFFCFC"/>
<path fill-rule="evenodd" clip-rule="evenodd" d="M30.7891 33.0115H39.2833V38H30.7891V33.0115Z" fill="#FFFCFC"/>
<path fill-rule="evenodd" clip-rule="evenodd" d="M20.5327 26.0952H29.0269V31.0837H20.5327V26.0952Z" fill="#FFFCFC"/>
<path fill-rule="evenodd" clip-rule="evenodd" d="M10.2563 26.0952H18.7505V31.0837H10.2563V26.0952Z" fill="#FFFCFC"/>
<path fill-rule="evenodd" clip-rule="evenodd" d="M10.2563 19.179H18.7505V24.1674H10.2563V19.179Z" fill="#FFFCFC"/>
<path d="M191.288 21.1464V21.8817H198V19.9142C198 15.502 195.248 12.3022 190.634 12.3022C187.664 12.3022 185.566 13.7531 184.477 16.1579V12.3022H177.547V37.9999H184.477V21.4445C184.477 18.8211 185.882 17.3702 188.041 17.3702C190.021 17.3901 191.288 19.2583 191.288 21.1464Z" fill="#FFFCFC"/>
</g>
</svg>
