<svg width="192" height="34" viewBox="0 0 192 34" fill="none" xmlns="http://www.w3.org/2000/svg">
<g opacity="0.7">
<path d="M178.701 12.6594L192 12.9167L181.353 20.9332L185.219 33.7301L174.347 26.0257L163.439 33.679L167.366 20.8999L156.757 12.8332L170.058 12.6384L174.409 0L178.701 12.6594Z" fill="#FFFCFC"/>
<path d="M21.8159 30.1718C19.027 33.0709 15.9162 33.8538 12.3488 33.8538C8.5537 33.8538 5.67166 32.564 3.29377 30.1718C-0.135904 26.7229 0.00074435 22.1249 0.00074435 17.2041C0.00074435 12.2843 -0.135904 7.68418 3.29377 4.23537C5.67166 1.84525 8.41602 0.556499 12.3488 0.556499C20.7175 0.556499 24.2838 6.02796 25.0633 11.4099H17.0135C16.3737 8.92609 15.0932 7.73103 12.3488 7.73103C10.885 7.73103 9.78872 8.37438 9.1945 9.15617C8.46261 10.1212 8.00401 11.2267 8.00401 17.2041C8.00401 23.1815 8.46261 24.3308 9.1945 25.2968C9.78872 26.0796 10.885 26.6782 12.3488 26.6782C14.0404 26.6782 15.1832 26.1733 15.9162 25.3905C16.8323 24.4682 17.1522 23.1357 17.1522 21.8969V21.4357H12.3488V14.7213H25.1079V19.2767C25.1079 24.5629 24.2838 27.6442 21.8159 30.1718ZM38.7986 34C32.1463 34 26.7083 29.48 26.7083 22.4273V1.54495H34.5728V22.2482C34.5728 25.2296 36.1909 26.9483 38.7986 26.9483C41.4074 26.9483 43.1134 25.2296 43.1134 22.2482V1.54495H50.979V22.4273C50.979 29.48 45.4509 34 38.7986 34Z" fill="#FFFCFC"/>
<path d="M67.3387 33.7278H61.496L50.9326 1.54543H59.0684L64.4619 19.5349L69.7673 1.54543H77.9476L67.3387 33.7278Z" fill="#FFFCFC"/>
<path d="M77.9175 33.7278V1.54543H99.6746V8.59504H85.7851V13.9749H97.6518V21.0255H85.7851V26.675H99.6746V33.7278H77.9175ZM113.684 8.64136H109.233V15.1486H113.684C115.842 15.1486 117.098 13.5673 117.098 11.8945C117.098 10.2247 115.842 8.64136 113.684 8.64136ZM117.55 33.7272L111.886 21.7485H109.233V33.7272H101.366V1.54492H114.042C121.145 1.54492 124.966 6.60622 124.966 11.8945C124.966 16.2781 122.268 19.0378 119.753 20.3015L126.673 33.7272H117.55Z" fill="#FFFCFC"/>
<path d="M140.809 13.748L137.932 22.3362H143.507L140.809 13.748ZM147.057 33.7278L145.573 28.9361H135.73L134.156 33.7278H125.931L137.573 1.54543H143.642L155.282 33.7278H147.057ZM153.307 2.60796H152.983V3.15137H153.307C153.48 3.15137 153.593 3.02646 153.593 2.87968C153.593 2.7329 153.48 2.60796 153.307 2.60796ZM153.583 4.31521L153.203 3.5053H152.983V4.31521H152.517V2.22175H153.366C153.789 2.22175 154.059 2.53199 154.059 2.87968C154.059 3.16908 153.875 3.35332 153.675 3.43452L154.113 4.31521H153.583ZM153.231 1.74395C152.388 1.74395 151.738 2.3956 151.738 3.27212C151.738 4.14551 152.388 4.79927 153.231 4.79927C154.074 4.79927 154.723 4.14551 154.723 3.27212C154.723 2.3956 154.074 1.74395 153.231 1.74395ZM153.231 5.23961C152.15 5.23961 151.274 4.35892 151.274 3.27212C151.274 2.18428 152.15 1.30256 153.231 1.30256C154.312 1.30256 155.189 2.18428 155.189 3.27212C155.189 4.35892 154.312 5.23961 153.231 5.23961Z" fill="#FFFCFC"/>
</g>
</svg>
