<svg width="206" height="40" viewBox="0 0 206 40" fill="none" xmlns="http://www.w3.org/2000/svg">
<g opacity="0.7">
<path d="M13.0501 39.3835H5.28781V19.9701H0V13.6495H5.28761V9.15198C5.28761 3.82237 7.62633 0 15.3676 0C17.0049 0 19.5754 0.331086 19.5754 0.331086V6.20011H16.8755C14.1246 6.20011 13.0505 7.0396 13.0505 9.36051V13.6495H19.4724L18.9005 19.9701H13.0503L13.0501 39.3835ZM30.8609 13.1444C30.7478 13.1444 30.6314 13.1486 30.5162 13.1515C23.3186 13.1515 20.0255 18.5832 20.0255 26.2936C20.0255 36.0067 24.2971 39.8942 30.5725 39.8942C34.1628 39.8942 36.5217 38.3781 37.9555 35.5487V39.3862H45.3385V13.6522H37.9555V17.6098C36.7848 15.0636 34.36 13.1746 30.8609 13.1444ZM32.7381 19.2253C35.7612 19.2253 37.5756 21.3408 37.5756 24.9391L37.5826 28.6143C37.5826 31.0396 36.084 33.877 32.7381 33.877C27.5943 33.877 27.7317 28.3047 27.7317 26.4488C27.7317 20.2059 30.4723 19.2253 32.7381 19.2253ZM48.3202 26.5205C48.3202 23.3934 48.171 13.1612 61.4589 13.1612C66.7928 13.1612 69.0201 14.8627 69.0201 14.8627L67.23 20.4331C67.23 20.4331 65.0056 19.2042 62.1071 19.2042C58.3948 19.2042 56.026 21.3633 56.026 25.1621L56.0301 27.886C56.0301 31.5362 58.3157 33.9729 62.1148 33.9729C64.7553 33.9729 67.189 32.7324 67.189 32.7324L68.9746 38.1865C68.9746 38.1865 66.938 39.8987 61.4961 39.8987C48.844 39.8987 48.3204 30.7184 48.3204 26.5205H48.3202ZM112.31 13.1515C119.507 13.1515 122.852 18.5832 122.852 26.2936C122.852 36.0067 118.581 39.8942 112.305 39.8942C108.715 39.8942 106.061 38.3783 104.627 35.5487V39.3862L97.3369 39.3833V0.782454L105.077 0.105195V17.2611C106.194 14.2596 109.865 13.1515 112.31 13.1515ZM110.14 19.2253C107.117 19.2253 105.077 21.3408 105.077 24.9391L105.07 28.6143C105.065 31.0396 106.482 33.877 110.14 33.877C115.283 33.877 115.146 28.3047 115.146 26.4488C115.146 20.2059 112.406 19.2253 110.14 19.2253ZM82.4501 13.1728C74.2863 13.1728 69.9763 17.6383 69.9763 25.574V27.0484C69.9763 37.3482 76.0288 40 83.2446 40C90.2583 40 93.433 38.0319 93.433 38.0319L91.9846 32.7907C91.9846 32.7907 88.2502 34.3848 84.1726 34.3848C79.9455 34.3848 78.1276 33.3039 77.6616 29.2283H94.0518V25.0236C94.0518 16.4154 89.2147 13.1725 82.4499 13.1725L82.4501 13.1728ZM82.6468 18.4209C85.4727 18.4209 87.3038 20.1594 87.2033 24.1914H77.6758C77.841 19.9478 79.8157 18.4209 82.6468 18.4209ZM138.286 13.1374C129.903 13.1374 125.489 17.8772 125.489 26.3711C125.489 38.0253 133.097 39.9012 138.3 39.9012C145.917 39.9012 150.985 35.787 150.985 26.4769C150.985 16.7868 145.287 13.1374 138.286 13.1374ZM138.181 19.2464C141.867 19.2464 143.328 22.0143 143.328 25.165V27.8738C143.328 31.6906 141.284 33.8983 138.167 33.8983C135.251 33.8983 133.202 31.8332 133.202 27.8738V25.165C133.202 20.9423 135.641 19.2464 138.181 19.2464ZM166.405 13.1374C158.021 13.1374 153.608 17.8772 153.608 26.3711C153.608 38.0253 161.216 39.9012 166.419 39.9012C174.036 39.9012 179.103 35.787 179.103 26.4769C179.103 16.7868 173.405 13.1374 166.405 13.1374ZM166.299 19.2464C169.986 19.2464 171.446 22.0143 171.446 25.165V27.8738C171.446 31.6906 169.402 33.8983 166.285 33.8983C163.37 33.8983 161.321 31.8332 161.321 27.8738V25.165C161.321 20.9423 163.759 19.2464 166.299 19.2464ZM182.028 39.3835V0.782454L189.791 0.105402V25.9782L197.493 13.6497H205.691L197.657 26.4185L206 39.3835H197.779L189.791 26.7944V39.3835H182.028Z" fill="#FFFCFC"/>
</g>
</svg>
