<svg width="158" height="42" viewBox="0 0 158 42" fill="none" xmlns="http://www.w3.org/2000/svg">
<g opacity="0.7" clip-path="url(#clip0_22_38)">
<path d="M21.6628 0C19.4976 0 17.1788 0 15.01 0C14.9954 8.95937 14.9844 14.7632 14.9734 23.7226C12.117 14.977 9.25324 9.19124 6.38583 0C3.95366 0 2.43218 0 0 0C0 13.9988 0 28.0012 0 42C2.15421 41.6957 4.46569 41.4058 6.62357 41.1269C6.63088 32.3487 6.63454 26.9506 6.64185 18.1723C9.61167 26.8129 11.4367 31.9103 14.3992 40.1233C16.7217 39.8625 19.2709 39.5364 21.597 39.3046C21.6189 26.2006 21.6409 13.1003 21.6628 0Z" fill="#FFFCFC"/>
<path d="M46.5076 0C40.3412 0 34.248 0 28.0816 0C28.056 12.9156 28.0304 25.8311 28.0084 38.7503C34.1712 38.196 40.3412 37.7395 46.5186 37.3881C46.5222 35.5006 46.5259 32.7834 46.5295 30.8959C42.5137 31.1386 38.6734 31.3958 34.6722 31.6603C34.6795 28.1896 34.6868 25.3167 34.6942 21.8423C37.6201 21.7916 40.7069 21.8351 43.695 21.7844C43.6987 19.886 43.7024 17.1616 43.706 15.2632C40.7472 15.3139 37.6201 15.3211 34.7051 15.3755C34.7125 11.9011 34.7198 9.99914 34.7271 6.5248C36.5594 6.50306 38.3552 6.49944 40.1474 6.49944C40.4619 6.49944 40.7764 6.49944 41.091 6.49944C41.4055 6.49944 41.7164 6.49944 42.0309 6.49944C43.5268 6.49944 45.0263 6.49944 46.5551 6.48495C46.5551 4.60105 46.5039 1.88752 46.5076 0Z" fill="#FFFCFC"/>
<path d="M71.3451 0.0290527C64.5825 0.0290527 57.5896 0.0290527 50.827 0.0290527C50.8234 1.9057 50.8197 4.60837 50.816 6.48502C51.1086 6.48139 51.4049 6.48139 51.6975 6.48139C52.5899 6.48139 53.4786 6.48864 54.371 6.49951C55.2598 6.50675 56.1522 6.51762 57.0446 6.51762C57.2714 6.51762 57.5018 6.51762 57.7285 6.51762C57.7139 16.9298 57.6993 26.4434 57.6883 36.8556C59.8608 36.7759 62.1833 36.707 64.3521 36.6527C64.3631 26.2985 64.3704 16.8428 64.3814 6.48864C66.6746 6.48139 69.0446 6.47415 71.3378 6.4669C71.3451 4.61924 71.3451 1.8731 71.3451 0.0290527Z" fill="#FFFCFC"/>
<path d="M94.1636 0C87.9972 0 81.8271 0 75.6608 0C75.6608 12.1584 75.6571 24.3167 75.6571 36.4715C76.374 36.4679 77.0945 36.4679 77.8223 36.4679C79.3035 36.4679 80.7921 36.4715 82.2514 36.486C82.2514 31.327 82.2478 26.6173 82.2478 21.4583C82.6098 21.4583 82.9792 21.4619 83.3486 21.4619C84.2081 21.4619 85.0822 21.4583 85.96 21.4547C86.8378 21.451 87.7192 21.4474 88.5934 21.4474C89.4931 21.4474 90.3855 21.451 91.2596 21.4619C91.2596 19.6106 91.2559 16.8609 91.2559 15.0096C90.433 15.0023 89.5918 14.9987 88.7397 14.9987C87.829 14.9987 86.9109 15.0023 85.9929 15.006C85.0786 15.0096 84.1679 15.0132 83.2718 15.0132C82.928 15.0132 82.5879 15.0132 82.2514 15.0132C82.2514 11.6946 82.2514 9.82524 82.2478 6.50668C82.9719 6.50668 83.6924 6.50668 84.4129 6.50668C85.1444 6.50668 85.8722 6.50668 86.5964 6.50668C87.3316 6.50668 88.063 6.50668 88.7982 6.50668C90.5866 6.50668 92.3751 6.50668 94.1782 6.51755C94.1672 4.66264 94.1672 1.85491 94.1636 0Z" fill="#FFFCFC"/>
<path d="M98.483 0.0290527C98.4977 12.3034 98.4391 24.5777 98.4574 36.8556C104.371 37.073 110.589 37.3121 116.496 37.7142C116.492 35.8267 116.488 33.1095 116.485 31.222C112.747 31.0046 108.852 30.7438 105.11 30.588C105.092 20.0744 105.15 10.5426 105.136 0.0290527C102.967 0.0290527 100.648 0.0290527 98.483 0.0290527Z" fill="#FFFCFC"/>
<path d="M121.953 0.0290527C121.978 12.7236 122.004 25.4182 122.029 38.1127C124.198 38.2794 126.44 38.4569 128.605 38.6489C128.613 25.7841 128.631 12.9048 128.605 0.0326756C126.44 0.0290527 124.121 0.0290527 121.953 0.0290527Z" fill="#FFFCFC"/>
<path d="M134.307 0.0326756C136.966 6.45241 139.402 12.8866 142.101 19.7049C139.292 26.2514 136.436 32.7581 133.631 39.0366C135.953 39.2648 138.356 39.5945 140.679 39.8517C142.343 35.805 143.857 32.6929 145.525 28.5375C147.189 32.961 148.703 36.381 150.36 40.9494C152.679 41.2465 155.681 41.674 157.996 42.0001C155.191 34.5695 152.123 26.8347 149.303 19.8136C152.112 13.2199 154.979 6.92701 157.898 0.0326756C155.502 0.0326756 153.03 0.0326756 150.634 0.0326756C148.835 4.29318 147.595 7.03207 145.868 11.0861C144.259 6.86542 143.18 4.13377 141.571 0.0290527C139.175 0.0326756 136.703 0.0326756 134.307 0.0326756Z" fill="#FFFCFC"/>
</g>
<defs>
<clipPath id="clip0_22_38">
<rect width="158" height="42" fill="white"/>
</clipPath>
</defs>
</svg>
