<svg width="226" height="42" viewBox="0 0 226 42" fill="none" xmlns="http://www.w3.org/2000/svg">
<g opacity="0.7">
<path d="M61.5485 40.6641V5.96469C61.5176 5.43659 61.9193 5.00168 62.4754 4.97061C62.5063 4.97061 62.5372 4.97061 62.5681 4.97061H65.7193C66.2445 4.93955 66.677 5.34339 66.7079 5.90256C66.7079 5.93362 66.7079 5.96469 66.7079 5.99575V40.8505C66.7388 41.3786 66.3372 41.8446 65.812 41.8446C65.7811 41.8446 65.7502 41.8446 65.7193 41.8446H62.5681C62.0429 41.6892 61.5485 41.3475 61.5485 40.6641ZM73.5046 9.1333V5.80937C73.4737 5.28126 73.9062 4.81529 74.4314 4.81529C74.4623 4.81529 74.4932 4.81529 74.5241 4.81529H78.0152C78.5404 4.78422 79.0038 5.21913 79.0038 5.74723C79.0038 5.7783 79.0038 5.80936 79.0038 5.84043V9.16436C79.0347 9.69247 78.6021 10.1584 78.0769 10.1584C78.0461 10.1584 78.0152 10.1584 77.9843 10.1584H74.4932C73.8444 10.1274 73.5046 9.81673 73.5046 9.1333ZM73.6591 40.6641V15.9676C73.69 15.4395 74.1225 15.0046 74.6477 14.9735H77.6444C78.1696 14.9424 78.6331 15.3773 78.6331 15.9054C78.6331 15.9365 78.6331 15.9676 78.6331 15.9986V40.8505C78.6639 41.3786 78.2314 41.8446 77.7062 41.8446C77.6753 41.8446 77.6444 41.8446 77.6135 41.8446H74.6168C74.1843 41.6892 73.6591 41.3475 73.6591 40.6641ZM85.4607 40.6641V15.9676C85.4298 15.4395 85.8623 14.9735 86.3875 14.9735C86.4184 14.9735 86.4493 14.9735 86.4802 14.9735H89.4769C90.0021 14.9424 90.4655 15.3773 90.4655 15.9054C90.4655 15.9365 90.4655 15.9676 90.4655 15.9676V17.6451H90.62C91.6086 16.3093 93.2769 15.1599 95.7484 14.4765H95.9029C99.7338 13.9794 102.7 14.8182 104.708 16.9927C106.376 18.8255 107.365 21.1554 107.365 24.324V40.8505C107.396 41.3786 106.963 41.8446 106.438 41.8446C106.407 41.8446 106.376 41.8446 106.345 41.8446H103.348C102.823 41.8756 102.36 41.4407 102.36 40.9126C102.36 40.8816 102.36 40.8505 102.36 40.8194V25.6287C102.36 21.1243 100.537 18.7945 96.7062 18.7945C94.8834 18.7945 93.2151 19.2915 92.072 20.472C90.9289 21.6524 90.4037 23.1435 90.4037 24.9764V40.8194C90.4346 41.3475 90.0021 41.8135 89.4769 41.8135C89.446 41.8135 89.4151 41.8135 89.4151 41.8135H86.4493C85.8005 41.6892 85.4607 41.3475 85.4607 40.6641ZM113.173 40.6641V5.96469C113.142 5.43659 113.544 5.00168 114.1 4.97061C114.131 4.97061 114.161 4.97061 114.192 4.97061H117.189C117.714 4.93955 118.147 5.34339 118.178 5.90256C118.178 5.93362 118.178 5.96469 118.178 5.99575V27.0266H118.332L128.774 15.5016C128.774 15.222 128.991 15.0046 129.269 15.0046H133.1C133.594 15.0046 133.995 15.4084 133.995 15.9054C133.995 16.1229 133.903 16.3403 133.779 16.4957L126.148 25.1627C125.839 25.4734 125.809 25.9704 126.117 26.3122L126.148 26.3432L135.448 40.3534C135.787 41.0058 135.448 41.8446 134.613 41.8446H131.246C130.937 41.8446 130.659 41.7203 130.412 41.5028L121.978 28.8284H121.823L118.332 32.6804C118.178 32.8358 118.178 33.0222 118.178 33.3328V41.0058C118.209 41.5339 117.776 41.9999 117.251 41.9999C117.22 41.9999 117.189 41.9999 117.158 41.9999H114.161C113.667 41.6892 113.173 41.3475 113.173 40.6641ZM141.565 33.3328V19.3226H138.568C138.043 19.3536 137.579 18.9187 137.579 18.3906C137.579 18.3596 137.579 18.3285 137.579 18.2974V15.9676C137.734 15.4705 138.074 14.9735 138.568 14.9735H141.719V9.47501C141.688 8.94691 142.09 8.48094 142.615 8.48094C142.646 8.48094 142.677 8.48094 142.708 8.48094H145.55C146.075 8.44987 146.539 8.88478 146.539 9.41288C146.539 9.44395 146.539 9.47501 146.539 9.47501V14.9735H152.192C152.717 14.9424 153.181 15.3773 153.181 15.9054C153.181 15.9365 153.181 15.9676 153.181 15.9676V18.2974C153.212 18.8255 152.779 19.2915 152.254 19.2915C152.223 19.2915 152.192 19.2915 152.161 19.2915H146.508V32.8047C146.508 34.2958 146.662 35.2899 147.156 35.9733C147.651 36.6567 148.485 36.9674 149.813 36.9674H150.987C151.513 36.9363 151.976 37.3712 151.976 37.8993C151.976 37.9304 151.976 37.9615 151.976 37.9925V40.8194C152.007 41.3475 151.574 41.8135 151.049 41.8135C151.018 41.8135 150.987 41.8135 150.956 41.8135H149.473C146.662 41.8135 144.654 41.1611 143.326 39.7943C142.213 38.1789 141.534 36.1597 141.565 33.3328ZM158.464 40.6641V15.9676C158.464 15.4705 158.804 14.9735 159.298 14.9735H162.109C162.634 14.9424 163.098 15.3773 163.098 15.9054C163.098 15.9365 163.098 15.9676 163.098 15.9676V17.9557H163.252C163.808 16.9306 164.612 16.0608 165.569 15.4395C166.558 14.7871 167.577 14.6007 168.721 14.6007C169.277 14.5696 169.833 14.6318 170.389 14.756C170.79 14.9114 171.069 15.3152 171.069 15.7501L170.574 18.7323C170.451 19.2294 169.925 19.54 169.431 19.3847C169.091 19.3847 168.782 19.2294 168.257 19.2294C165.106 19.2294 163.438 21.4039 163.438 25.753V40.4466C163.469 40.9748 163.036 41.4407 162.511 41.4407C162.48 41.4407 162.449 41.4407 162.449 41.4407H159.298C158.804 41.6892 158.464 41.3475 158.464 40.6641ZM193.498 32.9911L195.66 34.6686C196 35.0103 196.155 35.5073 195.815 35.849C194.764 37.3712 193.467 38.7381 191.984 39.8564C189.976 41.099 187.69 41.7203 185.342 41.6892C181.696 41.6892 178.699 40.3535 176.382 37.8372C174.065 35.321 172.891 31.8417 172.891 27.6479C172.891 23.2989 174.065 19.9749 176.382 17.4587C178.607 14.9424 181.82 13.5445 185.187 13.6066C188.678 13.6066 191.675 14.9424 193.807 17.4587C195.938 19.9749 197.112 23.4542 197.112 27.8033V28.3003C197.143 28.8284 196.742 29.2633 196.186 29.2944C196.155 29.2944 196.124 29.2944 196.093 29.2944H178.854C178.329 29.3254 177.896 29.7603 177.865 30.2884C178.02 32.0281 178.638 33.7056 179.688 35.1346C181.016 36.6257 182.685 37.4644 185.002 37.4644C186.021 37.4955 187.041 37.3091 187.999 36.9674C188.802 36.6567 189.543 36.2218 190.161 35.6316C190.81 34.9792 191.15 34.4511 191.49 34.1405C191.644 33.9852 191.829 33.6435 191.984 33.4881C192.324 32.8358 193.003 32.6804 193.498 32.9911ZM177.896 25.1627H192.169C192.015 23.1435 191.49 21.3107 190.347 20.006C189.173 18.5149 187.35 17.8314 185.033 17.8314C182.87 17.8314 181.047 18.6702 179.873 20.1613C178.607 21.4971 177.896 23.2989 177.896 25.1627ZM222.384 32.9911L224.546 34.6686C224.886 35.0103 225.041 35.5073 224.701 35.849C223.65 37.3712 222.353 38.7381 220.87 39.8564C218.862 41.099 216.576 41.7203 214.228 41.6892C210.582 41.6892 207.585 40.3535 205.268 37.8372C202.951 35.321 201.777 31.8417 201.777 27.6479C201.777 23.2989 202.951 19.9749 205.268 17.4587C207.493 14.9424 210.706 13.5445 214.073 13.6066C217.564 13.6066 220.561 14.9424 222.693 17.4587C224.824 19.9749 225.998 23.4542 225.998 27.8033V28.3003C226.029 28.8284 225.597 29.2944 225.072 29.2944C225.041 29.2944 225.01 29.2944 224.979 29.2944H207.709C207.184 29.3254 206.751 29.7603 206.72 30.2884C206.875 32.0281 207.493 33.7056 208.543 35.1346C209.872 36.6257 211.54 37.4644 213.857 37.4644C214.877 37.4955 215.896 37.3091 216.854 36.9674C217.657 36.6567 218.398 36.2218 219.016 35.6316C219.665 34.9792 220.005 34.4511 220.345 34.1405C220.499 33.9852 220.685 33.6435 220.839 33.4881C221.21 32.8358 221.859 32.6804 222.384 32.9911ZM206.782 25.1627H221.055C220.901 23.1435 220.376 21.3107 219.233 20.006C218.059 18.5149 216.236 17.8314 213.919 17.8314C211.756 17.8314 209.933 18.6702 208.759 20.1613C207.493 21.4971 206.782 23.2989 206.782 25.1627Z" fill="#FFFCFC"/>
<path d="M18.2657 1.1187C17.6787 0.0624983 16.3503 -0.310279 15.2999 0.279953C14.9291 0.466342 14.6511 0.776989 14.4657 1.1187L0.192602 27.151C-0.270811 28.1451 0.130812 29.3256 1.08853 29.7915C1.36658 29.9158 1.67552 30.009 1.98447 29.9779H11.6235V39.8255C11.6235 40.8195 12.4576 41.6583 13.4462 41.6583H19.0999C20.0885 41.6583 20.9226 40.8195 20.9226 39.8255V29.9779H18.2657C17.1535 30.0711 16.1958 29.2324 16.1031 28.114C16.0722 27.7723 16.134 27.4617 16.2576 27.151L24.2283 12.6438L18.2657 1.1187Z" fill="#FFFCFC"/>
<path d="M30.8706 1.1187C31.4576 0.0624983 32.786 -0.310279 33.8364 0.279953C34.1763 0.466342 34.4852 0.776989 34.6706 1.1187L48.9437 27.151C49.4071 28.114 49.0055 29.3256 48.0478 29.7915C47.7697 29.9469 47.4299 30.009 47.1209 29.9779H37.6673V39.8255C37.6673 40.8506 36.8332 41.6583 35.8446 41.6583H29.882C28.8934 41.6583 28.0592 40.8195 28.0592 39.8255V29.9779H30.7161C31.7974 29.9779 32.7242 29.2013 32.8787 28.1451C32.9096 27.8034 32.8478 27.4617 32.7242 27.151L24.7535 12.6438L30.8706 1.1187Z" fill="#FFFCFC"/>
</g>
</svg>
