<svg width="151" height="49" viewBox="0 0 151 49" fill="none" xmlns="http://www.w3.org/2000/svg">
<g opacity="0.7" clip-path="url(#clip0_22_15)">
<path d="M4.4039 20.2885C8.73843 12.2881 16.2266 3.56727 25.0693 0.6511C26.8823 0.20086 29.2997 -0.311721 30.9112 0.928171C32.3422 1.98797 32.5367 3.79586 32.2102 5.42365C31.7865 7.34929 30.4597 9.79444 28.2438 10.0992C27.8479 10.0992 27.5075 9.96069 27.2505 9.67669C26.6739 9.11562 26.7156 8.30519 26.8406 7.56402C27.2019 6.0332 28.6259 4.41234 30.2652 4.19761C30.5431 4.01751 30.425 3.6781 30.3486 3.44259C30.1332 3.10318 29.8693 2.84689 29.4733 2.76377C27.702 2.55596 26.3613 3.66425 24.9999 4.59936C19.8387 8.73465 16.0946 14.0544 12.941 19.3534C10.3708 24.119 8.18272 29.0439 7.54365 34.6061C7.23107 38.6445 8.51614 42.5996 12.1144 44.5461C16.0182 46.6102 21.0682 45.211 24.979 44.1512L28.5703 43.0499L35.475 41.0065C42.0254 39.1016 50.2221 38.6722 56.6128 41.2004C60.4749 42.8074 64.4552 45.0032 66.9767 48.7922C66.9767 48.8892 66.9767 49.0138 66.8586 48.9931C61.378 47.5038 54.244 46.0284 48.812 48.6121L48.555 48.5497C46.9087 45.9176 44.1232 44.456 41.2752 43.888C32.0643 43.0014 24.4928 47.3514 15.8376 48.432C11.4475 48.8337 6.74482 48.6952 3.68148 45.3496C-1.14624 40.5424 -0.576642 32.0502 1.71566 26.2525C2.45892 24.2091 3.38278 22.2211 4.41085 20.2747L4.4039 20.2885Z" fill="#FFFCFC"/>
<path d="M17.1156 23.1564C19.401 18.9657 22.9089 13.8537 27.7644 12.316C29.0634 12.025 30.4596 12.1428 31.4529 13.0017C33.5368 15.0798 32.731 18.6332 32.0225 21.0783C32.0225 21.2169 32.1406 21.3762 32.2795 21.397C34.1342 21.3416 35.6346 20.4757 36.9753 19.2081C39.858 15.9941 42.9422 11.7895 47.631 12.2883C48.5062 12.4337 49.3606 12.9325 49.8191 13.7498C51.0069 16.098 49.8399 18.7025 48.2214 20.5034C47.6032 21.0991 46.8252 21.5494 45.9222 21.2723C45.561 21.1545 45.2623 20.7943 45.1303 20.4342C44.7969 18.7856 45.7624 17.2548 47.0961 16.382C47.4782 16.0079 48.6313 16.2712 48.3187 15.4122C48.0825 15.0728 47.7213 15.0313 47.3392 15.0313C45.0608 15.9802 43.5813 18.3007 42.2545 20.2402C40.5874 22.8377 39.2467 25.6015 38.3576 28.5177C38.1145 29.5706 37.8088 30.9421 38.4271 31.9187C38.8855 32.5352 39.6427 32.7984 40.4207 32.6045C42.6782 31.7179 44.6579 29.9169 46.3806 28.0536C50.3262 23.3365 52.417 17.4972 57.6963 13.6598C59.3356 12.5307 61.6487 11.6649 63.6215 12.7039C63.941 12.8216 64.1981 13.2442 64.594 13.0848C64.9135 12.7662 65.1358 12.0943 65.7749 12.2536C67.2336 12.2813 68.9077 12.2051 70.4012 12.3506L70.4984 12.4891L70.0747 13.5005L61.878 30.097C61.7946 30.2771 61.7738 30.5126 61.8155 30.7135C61.9544 30.949 62.2531 30.9351 62.4754 30.852C63.6562 30.1801 64.5732 28.9333 65.3998 27.8804C66.1222 26.8899 66.7613 25.8578 67.2822 24.7634C67.5045 24.4448 67.7615 24.0499 68.1992 24.1123C68.6576 24.1746 69.2342 23.9737 69.5745 24.2924C69.0536 25.6846 68.227 26.9522 67.5045 28.2614C65.2817 31.6763 62.3712 35.6384 58.2798 36.6567C57.599 36.7329 56.7655 36.7883 56.2445 36.2895C55.4456 35.6938 55.4109 34.7379 55.1956 33.879C55.1192 33.782 54.9733 33.7613 54.8552 33.7959C53.1117 35.3614 51.3126 36.9268 48.8605 36.622C48.1033 36.4627 47.3879 35.8809 47.0544 35.1674C46.4223 33.9552 46.728 32.3828 46.6863 31.0321C46.6307 30.8728 46.4293 30.9351 46.3459 30.9906C43.6855 33.6089 40.8027 35.964 37.274 36.629C35.6346 36.8229 34.2245 36.338 33.1339 35.1813C30.4943 31.7317 32.5852 27.2085 33.9744 23.8491C34.037 23.6897 34.0161 23.4681 33.8147 23.4334C32.8561 23.5096 31.9392 23.662 31.0222 23.8006L30.7027 24.1608C28.5563 28.1298 26.2292 32.3344 22.3671 35.2852C20.7694 36.435 18.3938 37.2177 16.5182 36.1579C14.5663 34.8211 14.3996 32.4313 14.6427 30.2286C15.1081 27.728 16.0181 25.4007 17.1017 23.1564H17.1156ZM23.2145 22.9555C22.0892 25.2206 20.9431 27.4995 20.8944 30.1871C21.0125 30.6858 21.3112 31.2607 21.8669 31.4062C22.4643 31.5655 22.9645 31.2538 23.4229 30.9559C25.6249 29.1134 27.1462 26.5921 28.3896 24.1746C28.4868 23.9391 28.6674 23.6412 28.5285 23.378C27.2156 22.8585 25.9444 21.958 24.9303 20.8221L24.708 20.7805C24.5066 20.8221 24.4301 21.016 24.2912 21.1545L23.2076 22.9624L23.2145 22.9555ZM26.6391 18.3561C26.7155 19.5475 27.8269 20.5865 28.8828 20.9883C29.1398 21.0714 29.5566 21.2723 29.7788 20.9537C30.1817 20.1986 30.4249 19.3674 30.6263 18.5293C30.8277 17.4349 30.9945 15.9664 29.9386 15.246C29.5774 15.0451 29.0425 15.0243 28.6605 15.2044C27.4588 15.8001 26.5974 17.0054 26.6321 18.3561H26.6391ZM53.6465 27.6172C53.3409 28.6077 52.8824 29.6814 53.195 30.7758C53.2923 30.9975 53.5354 31.1568 53.7507 31.2122C54.6468 31.233 55.2511 30.4226 55.8277 29.7853C58.4534 26.1557 60.4609 22.249 62.267 18.273C62.5657 17.4418 63.0519 16.666 63.0311 15.7309C63.0102 15.53 62.8157 15.3915 62.656 15.2945C62.26 15.1144 61.878 15.3915 61.5584 15.5508C58.0227 18.2661 56.1125 22.152 54.3412 25.844L53.6396 27.6103L53.6465 27.6172Z" fill="#FFFCFC"/>
<path d="M70.7001 17.414C71.485 15.8694 72.1449 14.2554 73.1313 12.7869C73.5342 12.3506 74.1524 12.3713 74.6873 12.3159L78.612 12.3713L78.7717 12.5306C78.1118 14.0961 77.3825 15.6477 76.5628 17.1577C76.3613 17.5526 75.9446 17.9335 75.4861 17.9889C73.8884 18.0236 72.1935 18.1136 70.6792 17.9751C70.5194 17.8158 70.6584 17.5941 70.7001 17.421V17.414Z" fill="#FFFCFC"/>
<path d="M74.6385 25.3659C77.3685 19.7275 80.661 14.29 85.3221 9.4967C89.8441 5.00123 94.7413 1.35774 100.667 0.242533C102.285 0.00702274 104.098 0.152485 105.328 1.25384C105.564 1.45472 105.842 1.6556 106.182 1.53784C110.433 -0.15922 116.338 -0.754922 120.603 1.3716C123.069 2.57686 125.416 4.1146 127.785 5.59C128.084 5.74932 127.945 6.06795 127.785 6.24805C126.424 7.75116 125.284 9.30275 124.062 10.8682C123.923 11.0067 123.701 10.9444 123.562 10.8682L117.296 6.5736C114.372 4.59255 111.01 3.21412 107.196 3.83753C106.779 4.05226 106.974 4.57177 106.911 4.97352C106.995 8.87329 105.612 12.2674 103.723 15.3637C102.223 17.5248 100.479 19.7899 97.9228 20.5103C96.8044 20.7458 95.7277 20.4064 95.0539 19.5059C93.1923 16.6728 94.8386 13.2233 96.2001 10.702C97.763 7.96589 100.187 5.38913 102.806 3.40807C102.869 3.31109 102.987 3.20719 102.903 3.08944C102.646 2.83315 102.209 2.98554 101.889 3.04788C97.6379 4.46787 94.2342 8.20832 91.0875 11.7618C85.4818 18.64 81.2306 26.1071 78.8064 34.3084C78.0562 37.3908 77.042 42.1149 80.1887 44.276C82.9533 45.7584 85.6138 43.8535 87.6908 42.0733C90.8514 38.8593 92.9769 35.1535 93.8522 30.9558C93.9981 29.7021 94.3384 27.9981 93.1853 27.1392C92.1503 26.6751 91.289 27.5271 90.5874 28.2406C88.962 30.187 88.2812 32.5074 87.9895 35.0149C87.267 35.6106 86.4126 35.9847 85.6485 36.5596C84.2106 37.5501 82.7866 38.8732 81.6474 40.2031C81.5085 40.2447 81.4877 40.0853 81.446 40.0022C81.2793 35.389 82.9325 31.4338 85.4749 27.8873C87.4963 25.546 90.0942 23.5511 93.2409 24.2923C94.6163 24.6525 95.5263 26.1071 95.7833 27.4024C96.2834 31.7386 94.4565 35.5344 92.4907 39.0602C89.3232 44.0197 84.3218 49.0347 77.9798 48.4321C75.5485 48.2866 73.2771 46.6034 72.249 44.373C69.8525 39.6143 71.5127 33.4911 73.1173 28.8847L74.6038 25.3729L74.6385 25.3659ZM96.2001 17.1508C96.2556 17.6911 96.4779 18.266 97.0336 18.4669C98.1103 18.7717 98.9717 17.9751 99.7705 17.3655C102.653 14.3316 104.397 10.8197 104.855 6.78141C104.855 6.18571 105.057 5.43069 104.723 4.91118C104.487 4.86962 104.223 4.96659 104.022 5.10513C102.084 6.39351 100.264 8.27066 98.9369 10.1755C97.5546 12.302 96.2904 14.484 96.2001 17.1439V17.1508Z" fill="#FFFCFC"/>
<path d="M100.243 30.6442C102.549 27.6103 105.612 24.2993 109.481 24.0569C110.461 24.0777 111.315 24.4794 111.913 25.2968C113.559 27.7281 112.17 30.8451 111.565 33.3111C111.503 33.5327 111.663 33.692 111.822 33.7474C112.621 33.8721 113.538 33.7474 114.24 33.4011L114.538 33.0271C117.317 25.1236 121.45 17.7812 126.361 10.7783C129.424 6.73302 133.349 2.54925 137.906 0.595901C138.983 0.221855 140.539 -0.228385 141.574 0.568194C142.727 1.50331 142.4 3.13803 142.102 4.38485C141.977 5.50006 140.74 5.61089 139.92 5.86718C139.879 5.8464 139.837 5.86718 139.802 5.82561C139.823 5.11216 140.205 4.47489 140.351 3.78222C140.393 3.40124 140.455 3.08954 140.296 2.72935C140.101 2.36916 139.656 2.48691 139.358 2.59081C137.823 3.3389 136.579 4.7104 135.398 6.04035C130.994 11.1385 127.806 16.7907 124.875 22.5053C123.909 24.4933 122.909 26.4535 122.124 28.5177C122.103 28.6355 122.145 28.7186 122.242 28.7948C122.923 28.7809 123.319 28.0813 123.84 27.7281C127.723 24.2231 130.862 20.1987 133.773 16.1119C134.391 15.814 135.114 15.821 135.829 15.7586L135.968 15.8002C135.926 16.3543 135.447 16.7907 135.183 17.2894C131.939 21.9511 128.251 26.412 123.77 30.4711L120.533 33.124C119.852 33.7197 119.832 34.6341 119.491 35.3891C118.866 37.4325 118.241 39.5174 118.151 41.7686C118.171 42.1496 118.31 42.5029 118.623 42.7038C119.477 43.0847 120.158 42.2743 120.762 41.7202C125.146 36.6636 127.084 30.4642 132.439 25.934C134.197 24.5487 136.517 23.3642 138.788 24.4032C139.184 24.5418 139.483 25.0613 139.962 24.8258C140.302 24.5902 140.323 24.05 140.803 24.0707C142.379 24.0569 144.054 24.0015 145.568 24.1262C145.707 24.2439 145.61 24.4448 145.568 24.5833L144.484 26.7653L137.774 40.2655C137.475 40.882 137.072 41.5331 137.107 42.2327C137.204 42.5306 137.524 42.5514 137.781 42.496C139.038 41.8033 139.962 40.6534 140.782 39.4828C141.601 38.333 142.268 37.1208 143.046 35.9502C143.463 35.7562 144.047 35.8324 144.505 35.8947C144.783 36.151 144.422 36.4904 144.366 36.7883C142.4 40.8612 139.65 45.3013 135.357 47.5525C134.356 48.0443 132.981 48.5015 131.883 47.8988C131.008 47.2962 131.092 46.2087 130.696 45.3706C130.619 45.2528 130.418 45.2736 130.314 45.329C128.535 46.9152 126.611 48.6954 124.124 48.0097C122.568 47.2893 122.395 45.4953 122.284 43.9644C122.207 43.9021 122.242 43.7843 122.145 43.722L121.943 43.7982C120.2 45.8832 117.998 48.4807 115.066 48.2313C113.948 48.1482 112.976 47.0676 112.642 46.0771C111.614 42.8354 112.705 39.275 113.434 36.158C113.434 35.9779 113.233 35.7978 113.08 35.777L110.628 35.8116L110.225 36.2688C108.419 39.8014 106.432 43.2163 103.313 46.1672C101.674 47.6148 99.6524 48.8201 97.4018 48.1551C95.5332 47.3516 95.04 45.3221 95.0469 43.4172C95.4429 38.61 97.6102 34.5371 100.257 30.6512L100.243 30.6442ZM100.882 41.4431C100.917 42.1219 101.257 42.8146 101.952 43.0362C102.41 43.1956 102.91 43.0016 103.306 42.8007C105.605 41.0968 106.967 38.4784 108.217 36.0956C108.335 35.8601 108.44 35.4791 108.12 35.299C106.925 34.6964 105.772 33.7613 104.82 32.7015C104.702 32.5837 104.48 32.563 104.341 32.6392C103.48 33.789 102.917 35.0635 102.313 36.3311C101.632 37.9381 100.889 39.5244 100.882 41.4362V41.4431ZM106.661 30.291C106.738 31.5032 107.71 32.6392 108.829 33.0409C109.051 33.124 109.447 33.221 109.607 32.9439C110.287 31.3923 110.933 29.626 110.579 27.8389C110.44 27.4233 110.086 27.0008 109.648 26.8622C109.211 26.7445 108.752 26.8761 108.37 27.0562C107.252 27.7904 106.71 29.0026 106.661 30.291ZM128.64 40.9028C128.598 41.4777 128.452 42.1981 128.89 42.6345C129.126 42.8769 129.508 42.8977 129.807 42.7938C130.987 42.1843 131.745 40.9305 132.467 39.8984C134.87 36.1649 136.642 32.1751 138.288 28.1298C138.351 27.7696 138.448 27.2778 138.114 27.0354C137.142 26.5713 136.378 27.645 135.655 28.1575C132.474 31.3092 130.786 35.1189 129.195 38.9495L128.633 40.8959L128.64 40.9028Z" fill="#FFFCFC"/>
<path d="M133.294 11.2493L135.419 8.51318L135.739 8.23611C141.879 8.11835 146.679 4.47487 151 0.17334C150.979 0.748262 150.715 1.28855 150.514 1.80113C147.68 8.45084 140.803 14.297 133.363 14.3871L131.606 14.3594C131.286 14.2763 131.508 13.9645 131.585 13.8052L133.287 11.2423L133.294 11.2493Z" fill="#FFFCFC"/>
<path d="M141.039 46.354C141.039 45.5228 141.671 44.8925 142.477 44.8925C143.283 44.8925 143.901 45.5228 143.901 46.354C143.901 47.1852 143.269 47.8225 142.477 47.8225C141.685 47.8225 141.039 47.1991 141.039 46.354ZM142.477 48.1134C143.435 48.1134 144.255 47.3723 144.255 46.354C144.255 45.3358 143.435 44.6016 142.477 44.6016C141.518 44.6016 140.685 45.3427 140.685 46.354C140.685 47.3653 141.504 48.1134 142.477 48.1134ZM142.102 46.4926H142.456L142.991 47.3723H143.338L142.762 46.4787C143.06 46.4441 143.289 46.2848 143.289 45.9177C143.289 45.5159 143.053 45.3427 142.574 45.3427H141.803V47.3723H142.109V46.4926H142.102ZM142.102 46.2294V45.599H142.518C142.734 45.599 142.963 45.6475 142.963 45.8969C142.963 46.2086 142.727 46.2294 142.47 46.2294H142.102Z" fill="#FFFCFC"/>
</g>
<defs>
<clipPath id="clip0_22_15">
<rect width="151" height="49" fill="white"/>
</clipPath>
</defs>
</svg>
