<svg width="261" height="35" viewBox="0 0 261 35" fill="none" xmlns="http://www.w3.org/2000/svg">
<g opacity="0.7">
<path d="M94.9677 34.2863H88.2679V10.2111H79.6033V4.39265H103.632V10.2111H94.9677L94.9677 34.2863ZM130.419 34.286H123.679V4.39233H130.419V34.286ZM249.344 28.3871H261V34.287H242.606V4.39338H249.344V28.3871Z" fill="#FFFCFC"/>
<path d="M152.855 4.38683H163.774C171.828 4.38683 179.843 8.70867 179.843 19.2524C179.843 29.1911 171.987 34.2808 164.172 34.2808H152.855V4.38683ZM159.395 28.4215H163.574C169.197 28.4215 172.944 24.8674 172.944 19.2117C172.944 13.839 169.157 10.2054 163.733 10.2054H159.395V28.4215Z" fill="#FFFCFC"/>
<path d="M217.241 34.2865H224.649L212.493 4.39278H205.535L193.263 34.2865H200.47L202.645 28.3884H215.086L217.241 34.2865ZM204.451 23.0768L208.895 11.3861L213.298 23.0768H204.451ZM34.5451 8.74842L25.9097 17.4993L17.2725 8.74842L25.9097 0.0012207L34.5451 8.74842Z" fill="#FFFCFC"/>
<path d="M34.5451 26.2491L25.9097 35L17.2725 26.2491L25.9097 17.4982L34.5451 26.2491ZM17.2727 8.74908L8.63543 17.5L0 8.74908L8.63543 0L17.2727 8.74908ZM51.8167 8.74908L43.1812 17.5L34.544 8.74908L43.1812 0L51.8167 8.74908Z" fill="#FFFCFC"/>
</g>
</svg>
