<svg width="117" height="32" viewBox="0 0 117 32" fill="none" xmlns="http://www.w3.org/2000/svg">
<path d="M32.48 18C32.4267 19.8133 32.0667 21.5467 31.4 23.2C30.7333 24.8267 29.7733 26.28 28.52 27.56C27.2667 28.8133 25.72 29.8133 23.88 30.56C22.04 31.28 19.8933 31.64 17.44 31.64C15.0933 31.64 12.8933 31.2933 10.84 30.6C8.81333 29.9067 7.02667 28.8933 5.48 27.56C3.93333 26.2267 2.73333 24.5867 1.88 22.64C1.02667 20.6933 0.6 18.48 0.6 16C0.6 13.52 1.02667 11.3067 1.88 9.36C2.76 7.41333 3.97333 5.77333 5.52 4.44C7.09333 3.10666 8.92 2.09333 11 1.4C13.1067 0.706666 15.4 0.359999 17.88 0.359999C21.1067 0.359999 23.9067 0.866665 26.28 1.88C28.68 2.89333 30.6 4.28 32.04 6.04C33.5067 7.8 34.44 9.82667 34.84 12.12H27.2C26.9333 11 26.3733 10.04 25.52 9.24C24.6667 8.44 23.5867 7.82667 22.28 7.4C21 6.94666 19.5333 6.72 17.88 6.72C15.88 6.72 14.16 7.08 12.72 7.8C11.28 8.49333 10.16 9.53333 9.36 10.92C8.56 12.28 8.16 13.9733 8.16 16C8.16 18.0267 8.58667 19.7467 9.44 21.16C10.2933 22.5733 11.4933 23.64 13.04 24.36C14.5867 25.08 16.4133 25.44 18.52 25.44C20.5733 25.44 22.3733 25.1333 23.92 24.52C25.4933 23.9067 26.7333 23.0267 27.64 21.88C28.5733 20.7333 29.1067 19.36 29.24 17.76L32.48 18ZM19.4 21.04V15.68H35.12V31H29.72L28.68 19L30.2 21.04H19.4ZM45.5584 14.2H56.7984C58.2118 14.2 59.3318 13.88 60.1584 13.24C60.9851 12.5733 61.3984 11.6533 61.3984 10.48C61.3984 9.30667 60.9851 8.4 60.1584 7.76C59.3318 7.09333 58.2118 6.76 56.7984 6.76H44.4784L47.8784 3.04V31H40.3184V0.999998H57.7984C60.0384 0.999998 61.9984 1.4 63.6784 2.2C65.3584 3 66.6651 4.10666 67.5984 5.52C68.5318 6.93333 68.9984 8.58667 68.9984 10.48C68.9984 12.3467 68.5318 13.9867 67.5984 15.4C66.6651 16.8133 65.3584 17.92 63.6784 18.72C61.9984 19.52 60.0384 19.92 57.7984 19.92H45.5584V14.2ZM50.3984 16.96H58.9184L69.9584 31H61.1984L50.3984 16.96ZM106.559 18.6C106.265 21.1867 105.372 23.4667 103.879 25.44C102.385 27.3867 100.412 28.9067 97.9588 30C95.5054 31.0933 92.7188 31.64 89.5988 31.64C86.1321 31.64 83.0921 30.9867 80.4788 29.68C77.8921 28.3733 75.8788 26.5467 74.4388 24.2C72.9988 21.8533 72.2788 19.12 72.2788 16C72.2788 12.88 72.9988 10.1467 74.4388 7.8C75.8788 5.45333 77.8921 3.62667 80.4788 2.32C83.0921 1.01333 86.1321 0.359999 89.5988 0.359999C92.7188 0.359999 95.5054 0.906665 97.9588 2C100.412 3.09333 102.385 4.61333 103.879 6.56C105.372 8.50667 106.265 10.7867 106.559 13.4H98.9588C98.6921 12.04 98.1454 10.88 97.3188 9.92C96.5188 8.96 95.4521 8.22667 94.1188 7.72C92.8121 7.18666 91.2921 6.92 89.5588 6.92C87.5588 6.92 85.8388 7.29333 84.3988 8.04C82.9588 8.76 81.8521 9.8 81.0788 11.16C80.3054 12.52 79.9188 14.1333 79.9188 16C79.9188 17.8667 80.3054 19.48 81.0788 20.84C81.8521 22.2 82.9588 23.2533 84.3988 24C85.8388 24.72 87.5588 25.08 89.5588 25.08C91.2921 25.08 92.8121 24.8267 94.1188 24.32C95.4521 23.8133 96.5188 23.08 97.3188 22.12C98.1454 21.16 98.6921 19.9867 98.9588 18.6H106.559ZM112.691 31.4C111.891 31.4 111.157 31.2133 110.491 30.84C109.851 30.44 109.344 29.92 108.971 29.28C108.597 28.64 108.411 27.92 108.411 27.12C108.411 26.32 108.597 25.6 108.971 24.96C109.344 24.32 109.851 23.8133 110.491 23.44C111.157 23.04 111.891 22.84 112.691 22.84C113.491 22.84 114.211 23.04 114.851 23.44C115.491 23.8133 115.997 24.32 116.371 24.96C116.771 25.6 116.971 26.32 116.971 27.12C116.971 27.92 116.771 28.64 116.371 29.28C115.997 29.92 115.491 30.44 114.851 30.84C114.211 31.2133 113.491 31.4 112.691 31.4Z" fill="#202020"/>
</svg>
