<svg width="230" height="64" viewBox="0 0 230 64" fill="none" xmlns="http://www.w3.org/2000/svg">
<path d="M63.88 36C63.8267 39.6267 63.1067 43.0933 61.72 46.4C60.3867 49.6533 58.4667 52.56 55.96 55.12C53.4533 57.6267 50.36 59.6 46.68 61.04C43 62.48 38.7333 63.2 33.88 63.2C29.1867 63.2 24.7867 62.5067 20.68 61.12C16.6267 59.68 13.0533 57.6267 9.96 54.96C6.92 52.2933 4.54667 49.04 2.84 45.2C1.13333 41.3067 0.28 36.9067 0.28 32C0.28 27.0933 1.13333 22.72 2.84 18.88C4.6 14.9867 7.02667 11.7067 10.12 9.04C13.2133 6.37333 16.84 4.34667 21 2.96C25.16 1.52 29.6933 0.799996 34.6 0.799996C41 0.799996 46.5467 1.81333 51.24 3.84C55.9333 5.81333 59.72 8.56 62.6 12.08C65.5333 15.6 67.3467 19.6267 68.04 24.16H54.36C53.8267 21.7067 52.6533 19.6 50.84 17.84C49.08 16.08 46.8133 14.72 44.04 13.76C41.32 12.8 38.1733 12.32 34.6 12.32C30.3867 12.32 26.7333 13.0933 23.64 14.64C20.6 16.1333 18.2267 18.3467 16.52 21.28C14.8667 24.2133 14.04 27.7867 14.04 32C14.04 36.2133 14.92 39.8133 16.68 42.8C18.44 45.7867 20.9467 48.08 24.2 49.68C27.4533 51.2267 31.2933 52 35.72 52C40.04 52 43.8267 51.3333 47.08 50C50.3333 48.6133 52.8933 46.6933 54.76 44.24C56.68 41.7333 57.7733 38.7733 58.04 35.36L63.88 36ZM37.56 41.52V31.68H68.68V62H58.92L57.08 37.68L59.88 41.52H37.56ZM89.0063 28.64H112.126C115.166 28.64 117.566 27.9467 119.326 26.56C121.14 25.12 122.046 23.1467 122.046 20.64C122.046 18.1333 121.14 16.1867 119.326 14.8C117.566 13.4133 115.166 12.72 112.126 12.72H87.0063L93.1663 5.76V62H79.5663V2H113.726C118.1 2 121.94 2.8 125.246 4.4C128.553 5.94666 131.14 8.10666 133.006 10.88C134.873 13.6533 135.806 16.9067 135.806 20.64C135.806 24.32 134.873 27.5467 133.006 30.32C131.14 33.0933 128.553 35.28 125.246 36.88C121.94 38.4267 118.1 39.2 113.726 39.2H89.0063V28.64ZM99.4063 33.92H114.926L137.566 62H121.646L99.4063 33.92ZM210.386 37.6C209.799 42.6667 208.012 47.1467 205.026 51.04C202.092 54.88 198.199 57.8667 193.346 60C188.546 62.1333 183.052 63.2 176.866 63.2C170.039 63.2 164.039 61.8933 158.866 59.28C153.746 56.6667 149.746 53.04 146.866 48.4C143.986 43.7067 142.546 38.24 142.546 32C142.546 25.76 143.986 20.32 146.866 15.68C149.746 10.9867 153.746 7.33333 158.866 4.72C164.039 2.10666 170.039 0.799996 176.866 0.799996C183.052 0.799996 188.546 1.86666 193.346 4C198.199 6.13333 202.092 9.12 205.026 12.96C208.012 16.8 209.799 21.28 210.386 26.4H196.706C196.172 23.5733 195.026 21.1467 193.266 19.12C191.506 17.04 189.239 15.44 186.466 14.32C183.692 13.2 180.466 12.64 176.786 12.64C172.572 12.64 168.919 13.44 165.826 15.04C162.786 16.5867 160.439 18.8267 158.786 21.76C157.132 24.64 156.306 28.0533 156.306 32C156.306 35.9467 157.132 39.3867 158.786 42.32C160.439 45.2 162.786 47.44 165.826 49.04C168.919 50.5867 172.572 51.36 176.786 51.36C180.466 51.36 183.692 50.8267 186.466 49.76C189.239 48.64 191.506 47.0667 193.266 45.04C195.026 42.96 196.172 40.48 196.706 37.6H210.386ZM222.026 62.72C220.586 62.72 219.253 62.3733 218.026 61.68C216.853 60.9867 215.92 60.0533 215.226 58.88C214.533 57.6533 214.186 56.32 214.186 54.88C214.186 53.3867 214.533 52.0533 215.226 50.88C215.92 49.6533 216.853 48.6933 218.026 48C219.253 47.3067 220.586 46.96 222.026 46.96C223.52 46.96 224.853 47.3067 226.026 48C227.253 48.6933 228.213 49.6533 228.906 50.88C229.6 52.0533 229.946 53.3867 229.946 54.88C229.946 56.32 229.6 57.6533 228.906 58.88C228.213 60.0533 227.253 60.9867 226.026 61.68C224.853 62.3733 223.52 62.72 222.026 62.72Z" fill="#FFFCFC"/>
</svg>
