<svg xmlns="http://www.w3.org/2000/svg" xmlns:xlink="http://www.w3.org/1999/xlink" width="117" zoomAndPan="magnify" viewBox="0 0 87.75 30.000001" height="40" preserveAspectRatio="xMidYMid meet" version="1.0"><defs><g/></defs><g fill="#000000" fill-opacity="1"><g transform="translate(10.664873, 19.962904)"><g><path d="M 0.226562 -1.867188 C 0.523438 -0.890625 2.359375 0.171875 4.273438 0.171875 C 6.824219 0.171875 8.773438 -1.128906 8.773438 -3.363281 C 8.773438 -7.222656 3.363281 -6.003906 3.363281 -7.816406 C 3.363281 -8.558594 4.261719 -8.855469 4.992188 -8.855469 C 6.015625 -8.855469 6.929688 -8.328125 7.578125 -7.738281 C 7.964844 -8.5 8.464844 -9.148438 8.855469 -9.742188 C 8.171875 -10.324219 7.109375 -11.167969 4.933594 -11.167969 C 2.6875 -11.167969 0.445312 -9.902344 0.445312 -7.75 C 0.445312 -3.839844 5.972656 -4.820312 5.972656 -3.144531 C 5.972656 -2.371094 5.183594 -2.0625 4.339844 -2.0625 C 3.179688 -2.0625 2.121094 -2.847656 1.527344 -3.792969 C 1.195312 -3.121094 0.71875 -2.460938 0.226562 -1.867188 Z M 0.226562 -1.867188 "/></g></g></g><g fill="#000000" fill-opacity="1"><g transform="translate(22.640357, 19.962904)"><g><path d="M 0.113281 -10.996094 C 0.375 -10.769531 0.511719 -10.152344 0.511719 -9.582031 L 0.511719 -3.5 C 0.511719 0.46875 4.535156 0.183594 4.558594 0.183594 C 4.558594 0.183594 8.582031 0.46875 8.582031 -3.5 L 8.582031 -9.582031 C 8.582031 -10.152344 8.71875 -10.769531 8.980469 -10.996094 L 5.617188 -10.996094 C 5.878906 -10.769531 6.015625 -10.140625 6.015625 -9.570312 L 6.015625 -4.363281 C 6.015625 -3.121094 5.914062 -2.175781 4.546875 -2.175781 C 3.179688 -2.175781 3.078125 -3.121094 3.078125 -4.363281 L 3.078125 -9.570312 C 3.078125 -10.140625 3.214844 -10.769531 3.476562 -10.996094 Z M 0.113281 -10.996094 "/></g></g></g><g fill="#000000" fill-opacity="1"><g transform="translate(34.627235, 19.962904)"><g><path d="M 3.589844 0 C 3.328125 -0.226562 3.191406 -0.855469 3.191406 -1.425781 L 3.191406 -6.382812 L 5.71875 -0.320312 L 8.238281 -6.347656 L 8.238281 -1.425781 C 8.238281 -0.855469 8.101562 -0.226562 7.839844 0 L 11.203125 0 C 10.9375 -0.226562 10.800781 -0.84375 10.800781 -1.414062 L 10.800781 -9.582031 C 10.800781 -10.152344 10.9375 -10.769531 11.203125 -10.996094 L 8.238281 -10.996094 L 5.71875 -5.195312 L 3.191406 -10.996094 L 0.226562 -10.996094 C 0.488281 -10.769531 0.625 -10.152344 0.625 -9.582031 L 0.625 -1.414062 C 0.625 -0.84375 0.488281 -0.226562 0.226562 0 Z M 3.589844 0 "/></g></g></g><g fill="#000000" fill-opacity="1"><g transform="translate(48.949877, 19.962904)"><g><path d="M 1.195312 0 L 4.351562 0 C 3.636719 -0.945312 3.203125 -1.984375 3.03125 -3.28125 L 6.085938 -3.28125 L 6.085938 -1.414062 C 6.085938 -0.84375 5.949219 -0.226562 5.6875 0 L 9.046875 0 C 8.785156 -0.226562 8.648438 -0.855469 8.648438 -1.425781 L 8.648438 -10.164062 C 8.316406 -10.78125 7.191406 -11.167969 6.128906 -11.167969 C 2.425781 -11.167969 0.398438 -7.792969 0.398438 -4.660156 C 0.398438 -2.804688 0.648438 -1.617188 1.195312 0 Z M 3.042969 -5.445312 C 3.269531 -6.949219 4.101562 -8.820312 6.097656 -8.820312 L 6.085938 -5.445312 Z M 3.042969 -5.445312 "/></g></g></g><g fill="#000000" fill-opacity="1"><g transform="translate(61.005117, 19.962904)"><g><path d="M 0.226562 -10.996094 C 0.488281 -10.769531 0.625 -10.152344 0.625 -9.582031 L 0.625 -1.414062 C 0.625 -0.84375 0.488281 -0.226562 0.226562 0 L 3.589844 0 C 3.328125 -0.226562 3.191406 -0.855469 3.191406 -1.425781 L 3.191406 -5.789062 L 6.289062 0 L 9.253906 0 C 8.992188 -0.226562 8.855469 -0.84375 8.855469 -1.414062 L 8.855469 -9.582031 C 8.855469 -10.152344 8.992188 -10.769531 9.253906 -10.996094 L 5.890625 -10.996094 C 6.152344 -10.769531 6.289062 -10.140625 6.289062 -9.570312 L 6.289062 -5.207031 L 3.191406 -10.996094 Z M 0.226562 -10.996094 "/></g></g></g><g fill="#000000" fill-opacity="1"><g transform="translate(73.379391, 19.962904)"><g><path d="M 0.570312 -0.992188 C 0.570312 -0.351562 1.09375 0.171875 1.730469 0.171875 C 2.371094 0.171875 2.894531 -0.351562 2.894531 -0.992188 C 2.894531 -1.628906 2.371094 -2.152344 1.730469 -2.152344 C 1.09375 -2.152344 0.570312 -1.628906 0.570312 -0.992188 Z M 0.570312 -0.992188 "/></g></g></g></svg>